<?xml version="1.0" encoding="utf-8"?>
<!-- Generator: Adobe Illustrator 13.0.0, SVG Export Plug-In . SVG Version: 6.00 Build 14948)  -->
<!DOCTYPE svg PUBLIC "-//W3C//DTD SVG 1.0//EN" "http://www.w3.org/TR/2001/REC-SVG-20010904/DTD/svg10.dtd">
<svg version="1.0" id="Ebene_1" xmlns="http://www.w3.org/2000/svg" xmlns:xlink="http://www.w3.org/1999/xlink" x="0px" y="0px"
	 width="100px" height="100px" viewBox="-20.826 -16.359 100 100" enable-background="new -20.826 -16.359 100 100"
	 xml:space="preserve">
<polygon points="19.273,51.471 19.273,48.087 80.836,48.087 80.836,51.471 "/>
<polygon points="48.362,-33.432 51.746,-33.432 51.746,132.99 48.362,132.99 "/>
<path d="M43.063-38.167c0-4.049,3.282-7.329,7.331-7.331l0,0c4.048,0,7.327,3.282,7.327,7.331l0,0c0,4.049-3.279,7.326-7.327,7.329
	l0,0C46.345-30.841,43.065-34.12,43.063-38.167L43.063-38.167z M46.446-38.167c0.002,2.178,1.768,3.943,3.948,3.945l0,0
	c2.179-0.002,3.942-1.768,3.946-3.945l0,0c-0.004-2.18-1.768-3.943-3.946-3.948l0,0C48.212-42.11,46.448-40.347,46.446-38.167
	L46.446-38.167z"/>
<path d="M42.611,137.499c0-4.049,3.282-7.328,7.329-7.328l0,0c4.048,0,7.328,3.279,7.328,7.328l0,0c0,4.047-3.28,7.329-7.328,7.329
	l0,0C45.891,144.828,42.611,141.546,42.611,137.499L42.611,137.499z M45.994,137.499c0.004,2.181,1.768,3.943,3.948,3.948l0,0
	c2.181-0.005,3.944-1.768,3.944-3.948l0,0c0-2.18-1.763-3.942-3.944-3.947l0,0C47.762,133.557,45.999,135.319,45.994,137.499
	L45.994,137.499z"/>
<path d="M78.017,49.555c0-4.05,3.28-7.329,7.329-7.331l0,0c4.049,0,7.326,3.281,7.328,7.331l0,0
	c-0.002,4.047-3.279,7.329-7.328,7.329l0,0C81.297,56.879,78.017,53.602,78.017,49.555L78.017,49.555z M81.397,49.555
	c0.005,2.178,1.769,3.943,3.948,3.947l0,0c2.18-0.004,3.943-1.768,3.945-3.947l0,0c-0.002-2.181-1.766-3.945-3.945-3.95l0,0
	C83.166,45.609,81.402,47.374,81.397,49.555L81.397,49.555z"/>
<path d="M7.659,49.555c0-4.047,3.282-7.329,7.329-7.329l0,0c4.046,0,7.331,3.279,7.331,7.329l0,0c0,4.047-3.282,7.329-7.329,7.329
	l0,0C10.941,56.879,7.659,53.602,7.659,49.555L7.659,49.555z M11.042,49.555c0.004,2.178,1.768,3.943,3.948,3.947l0,0
	c2.178-0.004,3.945-1.768,3.948-3.947l0,0c-0.002-2.181-1.768-3.945-3.945-3.947l0,0C12.81,45.609,11.044,47.374,11.042,49.555
	L11.042,49.555z"/>
</svg>
