<?xml version="1.0" encoding="utf-8"?>
<!-- Generator: Adobe Illustrator 13.0.0, SVG Export Plug-In . SVG Version: 6.00 Build 14948)  -->
<!DOCTYPE svg PUBLIC "-//W3C//DTD SVG 1.0//EN" "http://www.w3.org/TR/2001/REC-SVG-20010904/DTD/svg10.dtd">
<svg version="1.0" id="Ebene_1" xmlns="http://www.w3.org/2000/svg" xmlns:xlink="http://www.w3.org/1999/xlink" x="0px" y="0px"
	 width="100px" height="100px" viewBox="-20.826 -16.359 100 100" enable-background="new -20.826 -16.359 100 100"
	 xml:space="preserve">
<path fill-rule="evenodd" clip-rule="evenodd" d="M61.449,10.82c-4.375,0.485,0.3,3.172-1.489,4.468
	c-3.661,0.396-2.222-5.12-0.745-5.958c10.708-0.397,6.69,12.66,0,12.66c-5.844,0-9.361-6.024-7.446-12.66
	c2.486-8.624,18.24-7.733,20.107,2.979c1.946,11.172-4.324,11.748-11.916,15.64c7.45,4.31,8.859,18.029,22.342,15.639
	c10.101-1.79,11.154-21.728-2.234-20.107c-15.262,1.847,1.987,23.088,3.724,7.448c-1.366-4.49-4.199,2.13-5.213,0
	c3.573-10.022,11.127,6.419,2.234,8.192c-4.623,0.921-10.33-4.726-8.192-11.916c3.066-10.314,22.897-4.486,19.363,10.426
	c-2.321,9.792-13.228,10.23-22.342,4.468c-3.868,16.267-1.396,32.038,12.66,29.789c7.773-1.243,12.47-18.238,0.744-18.618
	c-13.769-0.445-5.057,19.603,1.49,9.683c-0.035-2.944-6.083,0.125-5.213-3.725c7.028-6.7,10.261,9.404,0.744,8.938
	c-9.633-0.474-7.126-18.762,4.469-17.129c5.667,0.798,9.245,7.838,7.447,14.895c-3.688,14.465-27.655,9.4-26.065-8.192
	c-6.507,7.599-20.972,7.743-21.598,21.598c-0.63,13.944,23.351,18.015,21.598,1.489c-0.403-3.796-3.702-6.977-5.958-7.447
	c-15.36-3.204-8.247,19.672,0,9.681c0.09-4.318-3.621-1.453-5.213-2.979c4.428-9.042,11.364,5.182,3.724,7.447
	c-11.037,3.381-13.083-14.065-3.724-16.384c18.586-4.604,16.692,29.678-4.469,21.598c-9.701-3.706-9.761-17.792-0.745-26.066
	c-9.875-3.666-13.578-8.786-23.831-5.213c-10.323,3.598-9.887,23.848,5.213,20.853c4.182-0.83,7.306-5.288,6.703-9.682
	c-1.141-8.319-14.103-7.798-13.405,0c0.329,3.672,4.413,6.426,7.448,2.979c0.861-5.104-5.014-1.778-2.979-5.213
	c5.183-2.771,6.859,3.969,4.468,7.446c-16.325,10.231-14.668-20.963,2.234-12.66c7.157,3.516,6.946,22.485-9.681,19.363
	c-14.056-2.64-10.02-24.29,2.234-26.065c7.04-1.021,13.026,3.787,18.618,4.469c8.822,1.073,22.208-3.587,20.853-19.364
	c-1.971-22.925-39.38-18.769-30.534,6.703c3.824,11.01,25.512,10.539,25.321-4.468c-0.156-12.276-20.526-12.631-20.853-1.489
	c-0.038,1.311,0.274,7.829,5.958,8.937c9.496,1.851,12.589-12.651,1.49-11.916c-3.499,3.909,5.122,4.151,2.235,7.447
	c-16.209-3.648,8.645-19.252,6.703-0.745c-1.288,12.267-20.531,8.148-17.875-5.958c2.017-10.707,20.589-11.698,23.087,0
	c2.851,13.354-12.075,22.871-22.342,15.64C33.156,52.498,31.672,31.285,19,31.672c-9.256,0.283-14.068,18.753-1.489,19.364
	c9.494,0.46,8.426-12.657,2.979-13.406c-4.234,0.217-6.643,5.071-3.724,8.192c4.676,0.281,0.416-3.949,3.724-4.468
	c1.692,0.309,2.43,6.843-2.979,5.958c-3.789-0.62-6.182-10.826,2.233-11.171c8.894-0.365,9.069,16.819-1.489,17.128
	c-14.614,0.43-12.335-23.133,0-23.831c8.72-0.494,7.756,3.419,14.15,11.916c2.163-9.264,12.728-12.116,12.661-23.831
	c-0.031-5.34-3.007-9.727-7.448-10.426C25.907,5.252,23.737,24.72,34.639,23.48c5.8-0.659,7.744-10.396,0.744-10.426
	c-4.88,1.283,0.985,4.294-0.744,5.958c-3.971,0.577-4.247-3.364-2.979-5.958c7.27-9.741,14.373,9.217,5.213,11.916
	C23.71,28.847,20.397,3.694,37.618,5.607c8.403,0.934,11.774,13.308,5.958,20.853c11.259-0.927,27.097,1.145,27.555-11.171
	c0.499-13.431-21.121-13.032-18.618,0C54.846,27.439,72.784,15.839,61.449,10.82z"/>
</svg>
