<?xml version="1.0" encoding="utf-8"?>
<!-- Generator: Adobe Illustrator 13.0.0, SVG Export Plug-In . SVG Version: 6.00 Build 14948)  -->
<!DOCTYPE svg PUBLIC "-//W3C//DTD SVG 1.0//EN" "http://www.w3.org/TR/2001/REC-SVG-20010904/DTD/svg10.dtd">
<svg version="1.0" id="Ebene_1" xmlns="http://www.w3.org/2000/svg" xmlns:xlink="http://www.w3.org/1999/xlink" x="0px" y="0px"
	 width="100px" height="100px" viewBox="-20.826 -16.359 100 100" enable-background="new -20.826 -16.359 100 100"
	 xml:space="preserve">
<ellipse cx="49.792" cy="51.616" rx="2.472" ry="2.491"/>
<g id="XMLID_2_">
	<g>
		<path d="M57.174,31.646c-3.736,2.467-7.681,8.049-6.825,12.829c-1.314-2.397-2.213-10.337-8.38-11.507
			c0.854-3.201,3.958-2.764,6.221-1.979c-0.952-3.887-2.922-7.743,1.474-11.776c3.769,3.657,3.032,7.438,0.753,11.265
			C52.691,31.589,54.837,28.152,57.174,31.646z"/>
	</g>
</g>
<g>
	<path fill="#FFFFFF" d="M40.667,44.859c-2.823-2.092-3.509-7.026-2.765-10.212c-2.968-0.667-2.395,2.231-4.148,2.785
		c-0.695-3.168-2.183-5.539-5.992-5.571c-0.319,4.344,2.637,5.391,5.07,6.962c-1.584,0.725-3.442,2.061-2.305,4.178
		C34.365,40.516,38.784,44.26,40.667,44.859z M65.093,37.432c-0.041-1.816-0.563-3.146-2.765-2.785
		c0.821,4.23-1.882,8.921-2.767,11.141c1.62-2.64,6.086-4.913,9.679-2.785c0.523-2.692-1.072-3.252-2.306-4.178
		c3.305-0.85,5.091-3.23,5.532-6.962C67.41,31.102,67.754,35.78,65.093,37.432z"/>
	<path d="M72.467,31.861c-0.441,3.732-2.228,6.113-5.532,6.962c1.233,0.926,2.829,1.486,2.306,4.178
		c-3.593-2.127-8.059,0.145-9.679,2.785c0.883-2.219,3.588-6.909,2.767-11.141c2.201-0.361,2.724,0.97,2.765,2.785
		C67.754,35.78,67.41,31.102,72.467,31.861z"/>
	<path d="M30.526,43.002c-1.137-2.118,0.721-3.453,2.305-4.178c-2.433-1.572-5.389-2.618-5.07-6.962
		c3.81,0.032,5.297,2.402,5.992,5.571c1.754-0.555,1.181-3.453,4.148-2.785c-0.744,3.186-0.058,8.119,2.765,10.212
		C38.784,44.26,34.365,40.516,30.526,43.002z"/>
</g>
<g id="XMLID_1_">
	<g>
		<path d="M43.031,69.19c3.735-2.468,7.68-8.05,6.824-12.829c1.314,2.397,2.214,10.337,8.381,11.507
			c-0.854,3.201-3.96,2.764-6.223,1.979c0.951,3.887,2.923,7.742-1.473,11.775c-3.77-3.656-3.032-7.437-0.754-11.266
			C47.513,69.246,45.367,72.684,43.031,69.19z"/>
	</g>
</g>
<g>
	<path fill="#FFFFFF" d="M59.537,55.977c2.824,2.094,3.51,7.026,2.766,10.214c2.968,0.665,2.395-2.233,4.148-2.786
		c0.695,3.169,2.182,5.539,5.991,5.571c0.319-4.344-2.636-5.391-5.069-6.962c1.585-0.727,3.441-2.063,2.305-4.179
		C65.839,60.32,61.42,56.575,59.537,55.977z M35.111,63.403c0.041,1.816,0.564,3.146,2.765,2.785
		c-0.821-4.23,1.882-8.922,2.767-11.14c-1.621,2.639-6.087,4.912-9.679,2.785c-0.523,2.691,1.072,3.251,2.306,4.177
		c-3.305,0.85-5.09,3.23-5.532,6.962C32.793,69.734,32.45,65.056,35.111,63.403z"/>
	<path d="M27.738,68.975c0.442-3.732,2.227-6.113,5.532-6.963c-1.233-0.926-2.829-1.484-2.306-4.177
		c3.591,2.127,8.058-0.145,9.679-2.785c-0.882,2.22-3.587,6.909-2.767,11.141c-2.201,0.36-2.724-0.97-2.765-2.784
		C32.45,65.056,32.793,69.734,27.738,68.975z"/>
	<path d="M69.678,57.834c1.137,2.117-0.72,3.453-2.305,4.178c2.434,1.573,5.391,2.619,5.069,6.963
		c-3.81-0.031-5.296-2.401-5.991-5.571c-1.755,0.554-1.181,3.452-4.148,2.784c0.744-3.185,0.059-8.119-2.766-10.211
		C61.42,56.575,65.839,60.32,69.678,57.834z"/>
</g>
</svg>
